<?xml version="1.0" encoding="UTF-8"?>
<svg
    xmlns:dc="http://purl.org/dc/elements/1.1/"
    xmlns:cc="http://creativecommons.org/ns#"
    xmlns:rdf="http://www.w3.org/1999/02/22-rdf-syntax-ns#"
    xmlns:svg="http://www.w3.org/2000/svg"
    xmlns="http://www.w3.org/2000/svg"
    xmlns:sodipodi="http://sodipodi.sourceforge.net/DTD/sodipodi-0.dtd"
    xmlns:inkscape="http://www.inkscape.org/namespaces/inkscape"
    version="1.1"
    id="svg2"
    xml:space="preserve"
    height="50"
    viewBox="0 0 6557.9575 1346.3516"
    sodipodi:docname="datacraft-logo.svg"
    inkscape:version="1.0.1 (3bc2e813f5, 2020-09-07)"
>
    <metadata id="metadata8">
        <rdf:rdf
            ><cc:work rdf:about=""
                ><dc:format>image/svg+xml</dc:format
                ><dc:type rdf:resource="http://purl.org/dc/dcmitype/StillImage"></dc:type
                ><dc:title></dc:title></cc:work
        ></rdf:rdf>
    </metadata>
    <defs id="defs6">
        <clipPath clipPathUnits="userSpaceOnUse" id="clipPath18">
            <path d="m 24.496,3443.079 h 5119.37 V 24.496 H 24.496 Z" id="path16" />
        </clipPath>
    </defs>
    <sodipodi:namedview
        pagecolor="#ffffff"
        bordercolor="#666666"
        borderopacity="1"
        objecttolerance="10"
        gridtolerance="10"
        guidetolerance="10"
        inkscape:pageopacity="0"
        inkscape:pageshadow="2"
        inkscape:window-width="1916"
        inkscape:window-height="1052"
        id="namedview4"
        showgrid="false"
        fit-margin-top="0"
        fit-margin-left="0"
        fit-margin-right="0"
        fit-margin-bottom="0"
        inkscape:zoom="0.19617484"
        inkscape:cx="2157.0042"
        inkscape:cy="1111.2768"
        inkscape:window-x="1920"
        inkscape:window-y="24"
        inkscape:window-maximized="0"
        inkscape:current-layer="g14"
    ></sodipodi:namedview>
    <g
        id="g10"
        inkscape:groupmode="layer"
        inkscape:label="WallSponsorship-Final-Outines"
        transform="matrix(1.3333333,0,0,-1.3333333,-167.1204,3219.0903)"
    >
        <g id="g12">
            <g id="g14" clip-path="url(#clipPath18)">
                <g id="g20" transform="translate(920.7739,1557.1364)">
                    <path
                        d="m 0,0 c -18.303,27.672 -42.184,66.956 -68.713,116.784 l -38.716,72.726 -58.587,-139.133 c 49.928,-92.627 84.615,-142.938 109.932,-170.286 z"
                        style="fill: #918f90; fill-opacity: 1; fill-rule: nonzero; stroke: none"
                        id="path22"
                    />
                </g>
                <g id="g24" transform="translate(1192.4619,1736.2301)">
                    <path
                        d="m 0,0 c -21.691,9.835 -62.326,2.097 -78.033,-32.091 l -139.635,-299.585 h 35.334 c 66.196,0 130.263,74.761 161.723,144.263 l 49.782,109.85 C 42.54,-48.088 29.445,-13.319 0,0"
                        style="fill: #d3d2d2; fill-opacity: 1; fill-rule: nonzero; stroke: none"
                        id="path26"
                    />
                </g>
                <g id="g28" transform="translate(644.2017,2129.8584)">
                    <path
                        d="m 0,0 -11.5,27.223 c -53.633,127.455 -181.736,227.275 -291.632,227.275 h -157.162 c -32.282,0 -58.567,-26.285 -58.567,-58.601 0,-32.414 26.285,-58.666 58.567,-58.666 h 157.162 c 55.893,0 145.082,-63.825 183.655,-155.484 l 54.473,-129.424 z"
                        style="fill: #656263; fill-opacity: 1; fill-rule: nonzero; stroke: none"
                        id="path30"
                    />
                </g>
                <g id="g32" transform="translate(1221.6333,2129.9243)">
                    <path
                        d="m 0,0 -49.783,109.879 c -10.254,22.676 -62.454,130.138 -133.278,142.971 -16.965,4.323 -37.17,6.969 -59.115,6.969 -26.754,0 -51.17,-3.808 -70.005,-9.967 -74.548,-22.286 -148.162,-125.62 -188.991,-222.632 l -123.879,-294.261 c -0.017,-0.066 -0.033,-0.066 -0.05,-0.132 l -71.807,-170.639 c -38.574,-91.597 -127.763,-155.489 -183.655,-155.489 h -157.163 c -32.282,0 -58.567,-26.252 -58.567,-58.6 0,-32.349 26.285,-58.601 58.567,-58.601 h 157.163 c 109.896,0 237.998,99.854 291.632,227.246 l 195.752,464.937 c 13.095,31.156 28.138,58.31 43.072,81.015 11.417,19.32 39.347,61.923 72.356,76.371 18.834,8.227 76.711,19.803 106.365,-48.762 0.129,-0.258 0.324,-0.71 0.486,-1.067 l 56.552,-120.814 7.61,-16.803 c 0.502,-1.126 1.195,-2.127 1.773,-3.224 l 0.502,-1.096 c 0.162,-0.258 0.337,-0.515 0.499,-0.776 1.017,-1.74 2.113,-3.418 3.289,-5.03 0.469,-0.643 0.922,-1.291 1.404,-1.869 1.146,-1.42 2.321,-2.84 3.563,-4.128 0.727,-0.776 1.453,-1.453 2.16,-2.193 1.146,-1.034 2.259,-2.064 3.451,-3.032 1.13,-0.938 2.338,-1.773 3.534,-2.612 0.868,-0.548 1.724,-1.196 2.628,-1.744 1.853,-1.192 3.838,-2.226 5.836,-3.127 0.291,-0.162 0.565,-0.291 0.856,-0.453 7.467,-3.418 15.594,-5.257 23.88,-5.257 8.112,0 16.321,1.71 24.192,5.257 22.09,10 34.974,32.058 34.379,54.892 C 5.013,-15.093 3.335,-7.417 0,0"
                        style="fill: #99d64b; fill-opacity: 1; fill-rule: nonzero; stroke: none"
                        id="path34"
                    />
                </g>
                <g id="g36" transform="translate(1686.6826,1531.8844)">
                    <path
                        d="m 0,0 -35.525,105.688 h -1.708 L -72.775,0 Z M 108.284,-119.106 H 39.849 l -25.11,74.083 H -87.917 l -24.704,-74.083 h -66.681 l 103.948,281.074 h 82.29 z"
                        style="fill: #918f90; fill-opacity: 1; fill-rule: nonzero; stroke: none"
                        id="path38"
                    />
                </g>
                <g id="g40" transform="translate(2248.8765,1412.778)">
                    <path
                        d="M 0,0 H -68.406 L -204.428,194.93 V 0 h -60.212 v 281.074 h 68.452 L -60.215,89.209 V 281.074 H 0 Z"
                        style="fill: #918f90; fill-opacity: 1; fill-rule: nonzero; stroke: none"
                        id="path42"
                    />
                </g>
                <g id="g44" transform="translate(2617.4609,1531.8844)">
                    <path
                        d="m 0,0 -35.509,105.688 h -1.74 L -72.758,0 Z M 108.301,-119.106 H 39.846 l -25.09,74.083 h -102.69 l -24.673,-74.083 h -66.695 L -75.337,161.968 H 6.936 Z"
                        style="fill: #918f90; fill-opacity: 1; fill-rule: nonzero; stroke: none"
                        id="path46"
                    />
                </g>
                <g id="g48" transform="translate(3120.748,1412.778)">
                    <path
                        d="m 0,0 h -205.703 v 281.074 h 67.554 V 48.056 H 0 Z"
                        style="fill: #918f90; fill-opacity: 1; fill-rule: nonzero; stroke: none"
                        id="path50"
                    />
                </g>
                <g id="g52" transform="translate(3517.5029,1693.8522)">
                    <path
                        d="m 0,0 -102.64,-167.611 v -113.463 h -67.584 V -168.45 L -272.008,0 h 76.646 L -136.019,-110.012 -77.095,0 Z"
                        style="fill: #918f90; fill-opacity: 1; fill-rule: nonzero; stroke: none"
                        id="path54"
                    />
                </g>
                <g id="g56" transform="translate(3928.0996,1645.8297)">
                    <path
                        d="m 0,0 h -86.177 v -233.052 h -67.566 V 0 H -240.39 V 48.022 H 0 Z"
                        style="fill: #918f90; fill-opacity: 1; fill-rule: nonzero; stroke: none"
                        id="path58"
                    />
                </g>
                <path
                    d="m 4192.721,1412.778 h -67.501 v 281.074 h 67.501 z"
                    style="fill: #918f90; fill-opacity: 1; fill-rule: nonzero; stroke: none"
                    id="path60"
                />
                <g id="g62" transform="translate(4626.7285,1417.9401)">
                    <path
                        d="m 0,0 c -31.767,-6.321 -62.114,-9.481 -90.948,-9.481 -11.61,0 -22.478,0.481 -32.765,1.482 -10.192,1.034 -21.641,3.193 -34.188,6.549 -12.579,3.257 -23.253,7.738 -32.058,13.382 -8.805,5.677 -16.189,13.547 -22.319,23.801 -6.031,10.291 -9.095,22.319 -9.095,36.187 v 123.459 c 0,56.569 43.508,84.886 130.425,84.886 21.35,0 51.087,-3.161 89.208,-9.515 v -50.664 c -34.347,8.061 -63.792,12.123 -88.369,12.123 -9.773,0 -17.801,-0.32 -24.027,-0.868 -6.225,-0.614 -12.708,-2.065 -19.482,-4.357 -6.77,-2.321 -11.865,-5.997 -15.221,-11.027 -3.29,-5.033 -4.934,-11.611 -4.934,-19.673 V 76.695 c 0,-25.417 23.22,-38.058 69.727,-38.058 20.512,0 48.508,4.128 84.046,12.48 z"
                        style="fill: #918f90; fill-opacity: 1; fill-rule: nonzero; stroke: none"
                        id="path64"
                    />
                </g>
                <g id="g66" transform="translate(5043.8086,1511.5016)">
                    <path
                        d="m 0,0 v -18.577 c 0,-16.804 -3.002,-30.865 -9.065,-42.217 -6.094,-11.417 -15.027,-20.06 -26.897,-25.994 -11.869,-5.935 -24.768,-10.129 -38.735,-12.579 -14.03,-2.418 -30.734,-3.676 -50.054,-3.676 -26.895,0 -60.05,2.579 -99.625,7.804 v 51.54 c 47.96,-7.55 81.468,-11.226 100.464,-11.226 37.54,0 56.345,9.611 56.345,28.993 v 18.191 c 0,8.355 -2.454,15.191 -7.355,20.545 -4.933,5.353 -14.706,7.999 -29.445,7.999 h -32.96 c -61.794,0 -92.627,24.574 -92.627,73.663 v 20.8 c 0,24.22 10.192,42.219 30.51,53.894 20.382,11.674 52.893,17.543 97.656,17.543 21.642,0 50.958,-1.869 87.888,-5.611 v -50.248 c -43.832,5.191 -73.859,7.803 -90.048,7.803 -22.223,0 -37.573,-1.869 -45.958,-5.673 -8.353,-3.709 -12.547,-10.096 -12.547,-19.03 v -19.93 c 0,-14.706 12.418,-22.124 37.283,-22.124 h 33.769 c 32.896,0 56.341,-6.001 70.371,-18.128 C -6.969,41.605 0,23.738 0,0"
                        style="fill: #918f90; fill-opacity: 1; fill-rule: nonzero; stroke: none"
                        id="path68"
                    />
                </g>
                <g id="g70" transform="translate(1891.1567,1973.1158)">
                    <path
                        d="m 0,0 v 237.242 c 0,20.45 -4.161,37.412 -12.447,50.959 -8.289,13.547 -20.03,23.511 -35.252,29.865 -15.208,6.354 -30.849,10.773 -46.863,13.286 -16.043,2.483 -34.558,3.712 -55.552,3.712 H -282.827 V -92.851 h 128.568 C -51.44,-92.851 0,-61.923 0,0 M 77.131,236.403 V -1.674 c 0,-97.337 -75.212,-145.973 -225.6,-145.973 h -214.812 v 538.343 h 213.989 c 150.937,0 226.423,-51.474 226.423,-154.293"
                        style="fill: #99d64b; fill-opacity: 1; fill-rule: nonzero; stroke: none"
                        id="path72"
                    />
                </g>
                <g id="g74" transform="translate(2307.4937,1906.8073)">
                    <path
                        d="m 0,0 v 109.463 h -115.286 c -34.313,0 -55.714,-4.484 -64.277,-13.289 -8.577,-8.835 -12.867,-29.027 -12.867,-60.503 0,-28.254 4.58,-48.056 13.692,-59.344 9.125,-11.318 28.333,-17.028 57.65,-17.028 h 14.914 c 14.369,0 26.414,0.291 36.091,0.839 9.659,0.515 20.574,2.064 32.751,4.581 12.173,2.483 21.43,6.641 27.784,12.447 C -3.177,-17.061 0,-9.449 0,0 M 74.644,-81.339 H 2.513 v 38.188 c -6.126,-31.028 -46.457,-46.444 -121.118,-46.444 -55.298,0 -93.578,8.385 -114.866,25.288 -21.301,16.833 -31.929,50.988 -31.929,102.429 0,44.798 9.951,75.598 29.848,92.497 19.902,16.836 58.33,25.255 115.299,25.255 H 0 v 63.888 c 0,22.124 -6.79,37.024 -20.337,44.829 -13.544,7.678 -39.089,11.578 -76.709,11.578 -40.928,0 -86.804,-3.352 -137.683,-9.996 v 54.73 c 54.75,5 104.222,7.483 148.469,7.483 67.455,0 111.125,-8.194 131.039,-24.445 C 64.68,287.62 74.644,253.755 74.644,202.348 Z"
                        style="fill: #99d64b; fill-opacity: 1; fill-rule: nonzero; stroke: none"
                        id="path76"
                    />
                </g>
                <g id="g78" transform="translate(2763.6719,1823.8571)">
                    <path
                        d="m 0,0 c -26.542,-4.452 -54.488,-6.645 -83.789,-6.645 -50.327,0 -85.417,8.709 -105.315,26.126 -19.918,17.415 -29.865,50.44 -29.865,99.14 V 354.09 h -89.595 v 48.99 h 89.595 v 124.361 h 75.467 V 403.08 H 0 V 354.09 H -143.502 V 114.43 c 0,-28.768 5.531,-47.992 16.578,-57.666 11.061,-9.643 33.445,-14.514 67.181,-14.514 8.867,0 28.768,2.192 59.743,6.677 z"
                        style="fill: #99d64b; fill-opacity: 1; fill-rule: nonzero; stroke: none"
                        id="path80"
                    />
                </g>
                <g id="g82" transform="translate(3087.1074,1906.8073)">
                    <path
                        d="m 0,0 v 109.463 h -115.282 c -34.3,0 -55.697,-4.484 -64.278,-13.289 -8.58,-8.835 -12.87,-29.027 -12.87,-60.503 0,-28.254 4.565,-48.056 13.676,-59.344 9.161,-11.318 28.35,-17.028 57.65,-17.028 h 14.951 c 14.349,0 26.38,0.291 36.087,0.839 9.659,0.515 20.578,2.064 32.767,4.581 12.144,2.483 21.414,6.641 27.768,12.447 C -3.177,-17.061 0,-9.449 0,0 M 74.661,-81.339 H 2.483 v 38.188 c -6.095,-31.028 -46.44,-46.444 -121.087,-46.444 -55.312,0 -93.579,8.385 -114.896,25.288 -21.269,16.833 -31.88,50.988 -31.88,102.429 0,44.798 9.931,75.598 29.816,92.497 19.898,16.836 58.376,25.255 115.315,25.255 H 0 v 63.888 c 0,22.124 -6.773,37.024 -20.334,44.829 -13.53,7.678 -39.122,11.578 -76.711,11.578 -40.926,0 -86.805,-3.352 -137.664,-9.996 v 54.73 c 54.73,5 104.202,7.483 148.453,7.483 67.455,0 111.121,-8.194 131.039,-24.445 19.914,-16.321 29.878,-50.186 29.878,-101.593 z"
                        style="fill: #99d64b; fill-opacity: 1; fill-rule: nonzero; stroke: none"
                        id="path84"
                    />
                </g>
                <g id="g86" transform="translate(3623.7236,1832.9191)">
                    <path
                        d="m 0,0 c -48.103,-10.482 -98.43,-15.707 -150.937,-15.707 -150.969,0 -226.436,48.637 -226.436,145.973 v 255.429 c 0,102.885 75.467,154.293 226.436,154.293 50.282,0 99.512,-5.288 147.618,-15.741 v -59.792 c -53.056,13.319 -101.739,19.931 -145.973,19.931 -21.011,0 -39.555,-1.193 -55.569,-3.709 -16.044,-2.516 -31.8,-6.932 -47.263,-13.257 -15.482,-6.384 -27.365,-16.35 -35.671,-29.894 -8.306,-13.547 -12.434,-30.575 -12.434,-50.992 v -252.14 c 0,-61.923 51.411,-92.884 154.243,-92.884 44.251,0 92.867,6.641 145.986,19.898 z"
                        style="fill: #99d64b; fill-opacity: 1; fill-rule: nonzero; stroke: none"
                        id="path88"
                    />
                </g>
                <g id="g90" transform="translate(3921.4551,2171.3979)">
                    <path
                        d="m 0,0 h -41.443 c -34.318,0 -59.585,-4.481 -75.92,-13.349 -16.272,-8.838 -24.432,-25.417 -24.432,-49.7 V -345.93 h -74.628 V 55.539 h 70.5 V -9.997 c 0,19.353 12.015,36.477 36.024,51.411 24.092,14.898 48.524,22.381 73.456,22.381 H 0 Z"
                        style="fill: #99d64b; fill-opacity: 1; fill-rule: nonzero; stroke: none"
                        id="path92"
                    />
                </g>
                <g id="g94" transform="translate(4238.292,1906.8073)">
                    <path
                        d="m 0,0 v 109.463 h -115.299 c -34.283,0 -55.697,-4.484 -64.211,-13.289 -8.642,-8.835 -12.932,-29.027 -12.932,-60.503 0,-28.254 4.61,-48.056 13.738,-59.344 9.062,-11.318 28.283,-17.028 57.6,-17.028 h 14.934 c 14.383,0 26.381,0.291 36.09,0.839 9.706,0.515 20.575,2.064 32.735,4.581 12.157,2.483 21.447,6.641 27.801,12.447 C -3.223,-17.061 0,-9.449 0,0 M 74.632,-81.339 H 2.451 v 38.188 c -6.06,-31.028 -46.44,-46.444 -121.039,-46.444 -55.278,0 -93.594,8.385 -114.912,25.288 -21.252,16.833 -31.896,50.988 -31.896,102.429 0,44.798 9.997,75.598 29.898,92.497 19.864,16.836 58.276,25.255 115.232,25.255 H 0 v 63.888 c 0,22.124 -6.77,37.024 -20.317,44.829 -13.61,7.678 -39.155,11.578 -76.695,11.578 -40.925,0 -86.854,-3.352 -137.714,-9.996 v 54.73 c 54.763,5 104.206,7.483 148.454,7.483 67.438,0 111.14,-8.194 131.039,-24.445 19.897,-16.321 29.865,-50.186 29.865,-101.593 z"
                        style="fill: #99d64b; fill-opacity: 1; fill-rule: nonzero; stroke: none"
                        id="path96"
                    />
                </g>
                <g id="g98" transform="translate(4677.8496,2177.9468)">
                    <path
                        d="m 0,0 h -133.553 v -352.478 h -74.631 V 0 h -92.012 v 48.99 h 92.012 v 64.664 c 0,45.315 12.708,77.144 38.185,95.368 25.416,18.286 62.471,27.349 111.141,27.349 21.509,0 43.926,-1.388 67.147,-4.096 v -48.927 c -19.32,2.744 -40.895,4.128 -64.697,4.128 -27.091,0 -46.701,-4.706 -58.859,-14.125 -12.159,-9.352 -18.286,-27.672 -18.286,-54.763 V 48.99 H 0 Z"
                        style="fill: #99d64b; fill-opacity: 1; fill-rule: nonzero; stroke: none"
                        id="path100"
                    />
                </g>
                <g id="g102" transform="translate(5042.7744,1823.8571)">
                    <path
                        d="m 0,0 c -26.542,-4.452 -54.472,-6.645 -83.789,-6.645 -50.281,0 -85.371,8.709 -105.269,26.126 -19.897,17.415 -29.898,50.44 -29.898,99.14 V 354.09 h -89.562 v 48.99 h 89.562 v 124.361 h 75.471 V 403.08 H 0 V 354.09 H -143.485 V 114.43 c 0,-28.768 5.514,-47.992 16.608,-57.666 11.03,-9.643 33.444,-14.514 67.181,-14.514 8.771,0 28.673,2.192 59.696,6.677 z"
                        style="fill: #99d64b; fill-opacity: 1; fill-rule: nonzero; stroke: none"
                        id="path104"
                    />
                </g>
                <g id="g170" transform="translate(920.7739,1557.1364)">
                    <path
                        d="m 0,0 c -18.303,27.672 -42.184,66.956 -68.713,116.784 l -38.716,72.726 -58.587,-139.133 c 49.928,-92.627 84.615,-142.938 109.932,-170.286 z"
                        style="fill: #918f90; fill-opacity: 1; fill-rule: nonzero; stroke: none"
                        id="path172"
                    />
                </g>
                <g id="g174" transform="translate(1192.4619,1736.2301)">
                    <path
                        d="m 0,0 c -21.691,9.835 -62.326,2.097 -78.033,-32.091 l -139.635,-299.585 h 35.334 c 66.196,0 130.263,74.761 161.723,144.263 l 49.782,109.85 C 42.54,-48.088 29.445,-13.319 0,0"
                        style="fill: #d3d2d2; fill-opacity: 1; fill-rule: nonzero; stroke: none"
                        id="path176"
                    />
                </g>
                <g id="g178" transform="translate(644.2017,2129.8584)">
                    <path
                        d="m 0,0 -11.5,27.223 c -53.633,127.455 -181.736,227.275 -291.632,227.275 h -157.162 c -32.282,0 -58.567,-26.285 -58.567,-58.601 0,-32.414 26.285,-58.666 58.567,-58.666 h 157.162 c 55.893,0 145.082,-63.825 183.655,-155.484 l 54.473,-129.424 z"
                        style="fill: #656263; fill-opacity: 1; fill-rule: nonzero; stroke: none"
                        id="path180"
                    />
                </g>
                <g id="g182" transform="translate(1221.6333,2129.9243)">
                    <path
                        d="m 0,0 -49.783,109.879 c -10.254,22.676 -62.454,130.138 -133.278,142.971 -16.965,4.323 -37.17,6.969 -59.115,6.969 -26.754,0 -51.17,-3.808 -70.005,-9.967 -74.548,-22.286 -148.162,-125.62 -188.991,-222.632 l -123.879,-294.261 c -0.017,-0.066 -0.033,-0.066 -0.05,-0.132 l -71.807,-170.639 c -38.574,-91.597 -127.763,-155.489 -183.655,-155.489 h -157.163 c -32.282,0 -58.567,-26.252 -58.567,-58.6 0,-32.349 26.285,-58.601 58.567,-58.601 h 157.163 c 109.896,0 237.998,99.854 291.632,227.246 l 195.752,464.937 c 13.095,31.156 28.138,58.31 43.072,81.015 11.417,19.32 39.347,61.923 72.356,76.371 18.834,8.227 76.711,19.803 106.365,-48.762 0.129,-0.258 0.324,-0.71 0.486,-1.067 l 56.552,-120.814 7.61,-16.803 c 0.502,-1.126 1.195,-2.127 1.773,-3.224 l 0.502,-1.096 c 0.162,-0.258 0.337,-0.515 0.499,-0.776 1.017,-1.74 2.113,-3.418 3.289,-5.03 0.469,-0.643 0.922,-1.291 1.404,-1.869 1.146,-1.42 2.321,-2.84 3.563,-4.128 0.727,-0.776 1.453,-1.453 2.16,-2.193 1.146,-1.034 2.259,-2.064 3.451,-3.032 1.13,-0.938 2.338,-1.773 3.534,-2.612 0.868,-0.548 1.724,-1.196 2.628,-1.744 1.853,-1.192 3.838,-2.226 5.836,-3.127 0.291,-0.162 0.565,-0.291 0.856,-0.453 7.467,-3.418 15.594,-5.257 23.88,-5.257 8.112,0 16.321,1.71 24.192,5.257 22.09,10 34.974,32.058 34.379,54.892 C 5.013,-15.093 3.335,-7.417 0,0"
                        style="fill: #99d64b; fill-opacity: 1; fill-rule: nonzero; stroke: none"
                        id="path184"
                    />
                </g>
                <g id="g186" transform="translate(1686.6826,1531.8844)">
                    <path
                        d="m 0,0 -35.525,105.688 h -1.708 L -72.775,0 Z M 108.284,-119.106 H 39.849 l -25.11,74.083 H -87.917 l -24.704,-74.083 h -66.681 l 103.948,281.074 h 82.29 z"
                        style="fill: #918f90; fill-opacity: 1; fill-rule: nonzero; stroke: none"
                        id="path188"
                    />
                </g>
                <g id="g190" transform="translate(2248.8765,1412.778)">
                    <path
                        d="M 0,0 H -68.406 L -204.428,194.93 V 0 h -60.212 v 281.074 h 68.452 L -60.215,89.209 V 281.074 H 0 Z"
                        style="fill: #918f90; fill-opacity: 1; fill-rule: nonzero; stroke: none"
                        id="path192"
                    />
                </g>
                <g id="g194" transform="translate(2617.4609,1531.8844)">
                    <path
                        d="m 0,0 -35.509,105.688 h -1.74 L -72.758,0 Z M 108.301,-119.106 H 39.846 l -25.09,74.083 h -102.69 l -24.673,-74.083 h -66.695 L -75.337,161.968 H 6.936 Z"
                        style="fill: #918f90; fill-opacity: 1; fill-rule: nonzero; stroke: none"
                        id="path196"
                    />
                </g>
                <g id="g198" transform="translate(3120.748,1412.778)">
                    <path
                        d="m 0,0 h -205.703 v 281.074 h 67.554 V 48.056 H 0 Z"
                        style="fill: #918f90; fill-opacity: 1; fill-rule: nonzero; stroke: none"
                        id="path200"
                    />
                </g>
                <g id="g202" transform="translate(3517.5029,1693.8522)">
                    <path
                        d="m 0,0 -102.64,-167.611 v -113.463 h -67.584 V -168.45 L -272.008,0 h 76.646 L -136.019,-110.012 -77.095,0 Z"
                        style="fill: #918f90; fill-opacity: 1; fill-rule: nonzero; stroke: none"
                        id="path204"
                    />
                </g>
                <g id="g206" transform="translate(3928.0996,1645.8297)">
                    <path
                        d="m 0,0 h -86.177 v -233.052 h -67.566 V 0 H -240.39 V 48.022 H 0 Z"
                        style="fill: #918f90; fill-opacity: 1; fill-rule: nonzero; stroke: none"
                        id="path208"
                    />
                </g>
                <path
                    d="m 4192.721,1412.778 h -67.501 v 281.074 h 67.501 z"
                    style="fill: #918f90; fill-opacity: 1; fill-rule: nonzero; stroke: none"
                    id="path210"
                />
                <g id="g212" transform="translate(4626.7285,1417.9401)">
                    <path
                        d="m 0,0 c -31.767,-6.321 -62.114,-9.481 -90.948,-9.481 -11.61,0 -22.478,0.481 -32.765,1.482 -10.192,1.034 -21.641,3.193 -34.188,6.549 -12.579,3.257 -23.253,7.738 -32.058,13.382 -8.805,5.677 -16.189,13.547 -22.319,23.801 -6.031,10.291 -9.095,22.319 -9.095,36.187 v 123.459 c 0,56.569 43.508,84.886 130.425,84.886 21.35,0 51.087,-3.161 89.208,-9.515 v -50.664 c -34.347,8.061 -63.792,12.123 -88.369,12.123 -9.773,0 -17.801,-0.32 -24.027,-0.868 -6.225,-0.614 -12.708,-2.065 -19.482,-4.357 -6.77,-2.321 -11.865,-5.997 -15.221,-11.027 -3.29,-5.033 -4.934,-11.611 -4.934,-19.673 V 76.695 c 0,-25.417 23.22,-38.058 69.727,-38.058 20.512,0 48.508,4.128 84.046,12.48 z"
                        style="fill: #918f90; fill-opacity: 1; fill-rule: nonzero; stroke: none"
                        id="path214"
                    />
                </g>
                <g id="g216" transform="translate(5043.8086,1511.5016)">
                    <path
                        d="m 0,0 v -18.577 c 0,-16.804 -3.002,-30.865 -9.065,-42.217 -6.094,-11.417 -15.027,-20.06 -26.897,-25.994 -11.869,-5.935 -24.768,-10.129 -38.735,-12.579 -14.03,-2.418 -30.734,-3.676 -50.054,-3.676 -26.895,0 -60.05,2.579 -99.625,7.804 v 51.54 c 47.96,-7.55 81.468,-11.226 100.464,-11.226 37.54,0 56.345,9.611 56.345,28.993 v 18.191 c 0,8.355 -2.454,15.191 -7.355,20.545 -4.933,5.353 -14.706,7.999 -29.445,7.999 h -32.96 c -61.794,0 -92.627,24.574 -92.627,73.663 v 20.8 c 0,24.22 10.192,42.219 30.51,53.894 20.382,11.674 52.893,17.543 97.656,17.543 21.642,0 50.958,-1.869 87.888,-5.611 v -50.248 c -43.832,5.191 -73.859,7.803 -90.048,7.803 -22.223,0 -37.573,-1.869 -45.958,-5.673 -8.353,-3.709 -12.547,-10.096 -12.547,-19.03 v -19.93 c 0,-14.706 12.418,-22.124 37.283,-22.124 h 33.769 c 32.896,0 56.341,-6.001 70.371,-18.128 C -6.969,41.605 0,23.738 0,0"
                        style="fill: #918f90; fill-opacity: 1; fill-rule: nonzero; stroke: none"
                        id="path218"
                    />
                </g>
                <g id="g220" transform="translate(1891.1567,1973.1158)">
                    <path
                        d="m 0,0 v 237.242 c 0,20.45 -4.161,37.412 -12.447,50.959 -8.289,13.547 -20.03,23.511 -35.252,29.865 -15.208,6.354 -30.849,10.773 -46.863,13.286 -16.043,2.483 -34.558,3.712 -55.552,3.712 H -282.827 V -92.851 h 128.568 C -51.44,-92.851 0,-61.923 0,0 M 77.131,236.403 V -1.674 c 0,-97.337 -75.212,-145.973 -225.6,-145.973 h -214.812 v 538.343 h 213.989 c 150.937,0 226.423,-51.474 226.423,-154.293"
                        style="fill: #99d64b; fill-opacity: 1; fill-rule: nonzero; stroke: none"
                        id="path222"
                    />
                </g>
                <g id="g224" transform="translate(2307.4937,1906.8073)">
                    <path
                        d="m 0,0 v 109.463 h -115.286 c -34.313,0 -55.714,-4.484 -64.277,-13.289 -8.577,-8.835 -12.867,-29.027 -12.867,-60.503 0,-28.254 4.58,-48.056 13.692,-59.344 9.125,-11.318 28.333,-17.028 57.65,-17.028 h 14.914 c 14.369,0 26.414,0.291 36.091,0.839 9.659,0.515 20.574,2.064 32.751,4.581 12.173,2.483 21.43,6.641 27.784,12.447 C -3.177,-17.061 0,-9.449 0,0 M 74.644,-81.339 H 2.513 v 38.188 c -6.126,-31.028 -46.457,-46.444 -121.118,-46.444 -55.298,0 -93.578,8.385 -114.866,25.288 -21.301,16.833 -31.929,50.988 -31.929,102.429 0,44.798 9.951,75.598 29.848,92.497 19.902,16.836 58.33,25.255 115.299,25.255 H 0 v 63.888 c 0,22.124 -6.79,37.024 -20.337,44.829 -13.544,7.678 -39.089,11.578 -76.709,11.578 -40.928,0 -86.804,-3.352 -137.683,-9.996 v 54.73 c 54.75,5 104.222,7.483 148.469,7.483 67.455,0 111.125,-8.194 131.039,-24.445 C 64.68,287.62 74.644,253.755 74.644,202.348 Z"
                        style="fill: #99d64b; fill-opacity: 1; fill-rule: nonzero; stroke: none"
                        id="path226"
                    />
                </g>
                <g id="g228" transform="translate(2763.6719,1823.8571)">
                    <path
                        d="m 0,0 c -26.542,-4.452 -54.488,-6.645 -83.789,-6.645 -50.327,0 -85.417,8.709 -105.315,26.126 -19.918,17.415 -29.865,50.44 -29.865,99.14 V 354.09 h -89.595 v 48.99 h 89.595 v 124.361 h 75.467 V 403.08 H 0 V 354.09 H -143.502 V 114.43 c 0,-28.768 5.531,-47.992 16.578,-57.666 11.061,-9.643 33.445,-14.514 67.181,-14.514 8.867,0 28.768,2.192 59.743,6.677 z"
                        style="fill: #99d64b; fill-opacity: 1; fill-rule: nonzero; stroke: none"
                        id="path230"
                    />
                </g>
                <g id="g232" transform="translate(3087.1074,1906.8073)">
                    <path
                        d="m 0,0 v 109.463 h -115.282 c -34.3,0 -55.697,-4.484 -64.278,-13.289 -8.58,-8.835 -12.87,-29.027 -12.87,-60.503 0,-28.254 4.565,-48.056 13.676,-59.344 9.161,-11.318 28.35,-17.028 57.65,-17.028 h 14.951 c 14.349,0 26.38,0.291 36.087,0.839 9.659,0.515 20.578,2.064 32.767,4.581 12.144,2.483 21.414,6.641 27.768,12.447 C -3.177,-17.061 0,-9.449 0,0 M 74.661,-81.339 H 2.483 v 38.188 c -6.095,-31.028 -46.44,-46.444 -121.087,-46.444 -55.312,0 -93.579,8.385 -114.896,25.288 -21.269,16.833 -31.88,50.988 -31.88,102.429 0,44.798 9.931,75.598 29.816,92.497 19.898,16.836 58.376,25.255 115.315,25.255 H 0 v 63.888 c 0,22.124 -6.773,37.024 -20.334,44.829 -13.53,7.678 -39.122,11.578 -76.711,11.578 -40.926,0 -86.805,-3.352 -137.664,-9.996 v 54.73 c 54.73,5 104.202,7.483 148.453,7.483 67.455,0 111.121,-8.194 131.039,-24.445 19.914,-16.321 29.878,-50.186 29.878,-101.593 z"
                        style="fill: #99d64b; fill-opacity: 1; fill-rule: nonzero; stroke: none"
                        id="path234"
                    />
                </g>
                <g id="g236" transform="translate(3623.7236,1832.9191)">
                    <path
                        d="m 0,0 c -48.103,-10.482 -98.43,-15.707 -150.937,-15.707 -150.969,0 -226.436,48.637 -226.436,145.973 v 255.429 c 0,102.885 75.467,154.293 226.436,154.293 50.282,0 99.512,-5.288 147.618,-15.741 v -59.792 c -53.056,13.319 -101.739,19.931 -145.973,19.931 -21.011,0 -39.555,-1.193 -55.569,-3.709 -16.044,-2.516 -31.8,-6.932 -47.263,-13.257 -15.482,-6.384 -27.365,-16.35 -35.671,-29.894 -8.306,-13.547 -12.434,-30.575 -12.434,-50.992 v -252.14 c 0,-61.923 51.411,-92.884 154.243,-92.884 44.251,0 92.867,6.641 145.986,19.898 z"
                        style="fill: #99d64b; fill-opacity: 1; fill-rule: nonzero; stroke: none"
                        id="path238"
                    />
                </g>
                <g id="g240" transform="translate(3921.4551,2171.3979)">
                    <path
                        d="m 0,0 h -41.443 c -34.318,0 -59.585,-4.481 -75.92,-13.349 -16.272,-8.838 -24.432,-25.417 -24.432,-49.7 V -345.93 h -74.628 V 55.539 h 70.5 V -9.997 c 0,19.353 12.015,36.477 36.024,51.411 24.092,14.898 48.524,22.381 73.456,22.381 H 0 Z"
                        style="fill: #99d64b; fill-opacity: 1; fill-rule: nonzero; stroke: none"
                        id="path242"
                    />
                </g>
                <g id="g244" transform="translate(4238.292,1906.8073)">
                    <path
                        d="m 0,0 v 109.463 h -115.299 c -34.283,0 -55.697,-4.484 -64.211,-13.289 -8.642,-8.835 -12.932,-29.027 -12.932,-60.503 0,-28.254 4.61,-48.056 13.738,-59.344 9.062,-11.318 28.283,-17.028 57.6,-17.028 h 14.934 c 14.383,0 26.381,0.291 36.09,0.839 9.706,0.515 20.575,2.064 32.735,4.581 12.157,2.483 21.447,6.641 27.801,12.447 C -3.223,-17.061 0,-9.449 0,0 M 74.632,-81.339 H 2.451 v 38.188 c -6.06,-31.028 -46.44,-46.444 -121.039,-46.444 -55.278,0 -93.594,8.385 -114.912,25.288 -21.252,16.833 -31.896,50.988 -31.896,102.429 0,44.798 9.997,75.598 29.898,92.497 19.864,16.836 58.276,25.255 115.232,25.255 H 0 v 63.888 c 0,22.124 -6.77,37.024 -20.317,44.829 -13.61,7.678 -39.155,11.578 -76.695,11.578 -40.925,0 -86.854,-3.352 -137.714,-9.996 v 54.73 c 54.763,5 104.206,7.483 148.454,7.483 67.438,0 111.14,-8.194 131.039,-24.445 19.897,-16.321 29.865,-50.186 29.865,-101.593 z"
                        style="fill: #99d64b; fill-opacity: 1; fill-rule: nonzero; stroke: none"
                        id="path246"
                    />
                </g>
                <g id="g248" transform="translate(4677.8496,2177.9468)">
                    <path
                        d="m 0,0 h -133.553 v -352.478 h -74.631 V 0 h -92.012 v 48.99 h 92.012 v 64.664 c 0,45.315 12.708,77.144 38.185,95.368 25.416,18.286 62.471,27.349 111.141,27.349 21.509,0 43.926,-1.388 67.147,-4.096 v -48.927 c -19.32,2.744 -40.895,4.128 -64.697,4.128 -27.091,0 -46.701,-4.706 -58.859,-14.125 -12.159,-9.352 -18.286,-27.672 -18.286,-54.763 V 48.99 H 0 Z"
                        style="fill: #99d64b; fill-opacity: 1; fill-rule: nonzero; stroke: none"
                        id="path250"
                    />
                </g>
                <g id="g252" transform="translate(5042.7744,1823.8571)">
                    <path
                        d="m 0,0 c -26.542,-4.452 -54.472,-6.645 -83.789,-6.645 -50.281,0 -85.371,8.709 -105.269,26.126 -19.897,17.415 -29.898,50.44 -29.898,99.14 V 354.09 h -89.562 v 48.99 h 89.562 v 124.361 h 75.471 V 403.08 H 0 V 354.09 H -143.485 V 114.43 c 0,-28.768 5.514,-47.992 16.608,-57.666 11.03,-9.643 33.444,-14.514 67.181,-14.514 8.771,0 28.673,2.192 59.696,6.677 z"
                        style="fill: #99d64b; fill-opacity: 1; fill-rule: nonzero; stroke: none"
                        id="path254"
                    />
                </g>
            </g>
        </g>
        <g id="g320" transform="translate(27,3434.5747)">
            <path
                d="m 0,0 h -27 m 5141.362,0 h 27 M 0,-3401.575 h -27 m 5141.362,0 h 27 M 6,6 v 27 m 0,-3440.575 v -27 M 5108.362,6 v 27 m 0,-3440.575 v -27"
                style="
                    fill: none;
                    stroke: #ffffff;
                    stroke-width: 1.25;
                    stroke-linecap: butt;
                    stroke-linejoin: miter;
                    stroke-miterlimit: 10;
                    stroke-dasharray: none;
                    stroke-opacity: 1;
                "
                id="path322"
            />
        </g>
        <g id="g324" transform="translate(27,3434.5747)">
            <path
                d="m 0,0 h -27 m 5141.362,0 h 27 M 0,-3401.575 h -27 m 5141.362,0 h 27 M 6,6 v 27 m 0,-3440.575 v -27 M 5108.362,6 v 27 m 0,-3440.575 v -27"
                style="
                    fill: none;
                    stroke: #000000;
                    stroke-width: 0.25;
                    stroke-linecap: butt;
                    stroke-linejoin: miter;
                    stroke-miterlimit: 10;
                    stroke-dasharray: none;
                    stroke-opacity: 1;
                "
                id="path326"
            />
        </g>
    </g>
</svg>
