<?xml version="1.0" encoding="utf-8"?>
<!-- Generator: Adobe Illustrator 21.1.0, SVG Export Plug-In . SVG Version: 6.00 Build 0)  -->
<svg version="1.1" id="Layer_1" xmlns="http://www.w3.org/2000/svg" xmlns:xlink="http://www.w3.org/1999/xlink" x="0px" y="0px"
	 viewBox="0 0 292 295" style="enable-background:new 0 0 292 295;" xml:space="preserve">
<style type="text/css">
	.st0{fill:#0385C7;}
	.st1{fill:#0A85C7;}
</style>
<path class="st0" d="M260.6,93.2c-0.6,1.4-2.3,2-3.8,1.3c-1.4-0.6-2.1-2.2-1.5-3.6c0.6-1.4,2.3-2,3.8-1.3
	C260.6,90.2,261.2,91.8,260.6,93.2 M284.5,112.5c-2.4-4.6-2.1-5.2-2.1-9.4c-0.1-3.4-1.2-9.6-7.4-17.8c0,0,0.1,0,0.1,0.1
	c-0.6-1.2-17.8-22.7-27.5-29.4c-10.1-6.7-21.6-12.3-31.3-15.5c-0.9-0.3-1.9-0.6-3-0.8c-0.3-0.1-0.7-0.2-1-0.2
	c-0.8-0.2-1.5-0.3-2.3-0.5c-0.4-0.1-0.8-0.2-1.3-0.2c-0.9-0.2-1.8-0.3-2.7-0.5c-0.4-0.1-0.7-0.1-1.1-0.2c-1.2-0.2-2.5-0.3-3.8-0.5
	c-0.6-0.1-1.2-0.1-1.7-0.2c-0.8-0.1-1.6-0.1-2.5-0.2c-0.7,0-1.3-0.1-2-0.1c-0.8,0-1.7-0.1-2.5-0.1c-1.7-2.6-5-6.6-11.8-11.7
	c-12.5-9.3-38-26-47.8-24.2c-9.8,1.7,1.4,4.5,4,18.5c2.2,11.5,0.6,22.8-3.8,28.9c-0.3,0.1-0.6,0.2-0.8,0.4
	c-18.8,8.8-80.8,61.6-83,63c-1,0.7-1.8,1-1.8,1c-14.9,1-15.8-4.5-33.2-7.2c-17.8-2.8-14.7,3.3,1.3,14.9c16.1,11.7,2.6,24.2,7.1,33.7
	c3,4.1,8.4-4,12.7-11.4c3.7-6.4,5.1-14.3,7.6-18.1c7.5-4.1,20.4-6.8,34.4-11.9c23-8.3,36-12.2,51.9-11c15.9,1.2,51,2.9,63.1,2.2
	c0.5,0,1.1,0,1.7,0c-1.9,1.8-4.8,3.7-9.3,5.4c-13.1,5.1-21.6,4.7-5.8,9.4c12.1,3.6,32.2-3.9,44.1-12.5c9.6,1,19,2,24.7,2.2
	c10.9,1.7,23.6,10.8,34.2,13.9C292.6,125.9,286.8,117.1,284.5,112.5"/>
<path class="st1" d="M247.7,257.4h-9.9v-10.8h-11.2v10.8h-7.2v9h7.2v17.3c0,2,0.3,3.7,1,5.1c0.7,1.4,1.6,2.5,2.8,3.4
	c1.2,0.9,2.6,1.5,4.2,1.9c1.6,0.4,3.3,0.6,5.2,0.6c1.3,0,2.6-0.1,4-0.2c1.3-0.1,2.6-0.5,3.9-0.9v-9.4c-0.5,0.5-1.2,0.7-2.2,0.9
	c-1,0.1-1.8,0.2-2.4,0.2c-1.2,0-2.2-0.2-2.9-0.5c-0.7-0.3-1.3-0.8-1.6-1.4c-0.4-0.6-0.6-1.3-0.7-2.1c-0.1-0.8-0.1-1.7-0.1-2.7v-12.1
	h9.9V257.4z M215.7,261.2c-1.7-1.8-3.8-3-6.2-3.7c-2.4-0.7-4.9-1-7.3-1c-1.9,0-3.8,0.2-5.6,0.7c-1.8,0.5-3.5,1.2-4.9,2.2
	c-1.4,1-2.6,2.3-3.4,3.8c-0.9,1.5-1.3,3.4-1.3,5.5c0,2.3,0.5,4.1,1.4,5.5c0.9,1.4,2.1,2.4,3.5,3.2c1.4,0.8,2.9,1.3,4.6,1.7
	c1.6,0.4,3.1,0.7,4.6,1c1.4,0.3,2.6,0.7,3.5,1.2c0.9,0.5,1.4,1.2,1.4,2.1c0,1-0.5,1.7-1.6,2.1c-1,0.4-2.2,0.6-3.5,0.6
	c-1.7,0-3.2-0.3-4.5-1c-1.3-0.7-2.4-1.7-3.5-3l-6.8,7.6c1.8,1.8,4,3.1,6.6,3.9c2.6,0.7,5.2,1.1,7.7,1.1c1.9,0,3.9-0.2,5.9-0.6
	c2-0.4,3.8-1,5.4-1.9c1.6-0.9,2.9-2.1,3.9-3.7c1-1.5,1.5-3.5,1.5-5.8c0-2.3-0.5-4.1-1.4-5.5c-0.9-1.4-2.1-2.5-3.5-3.3
	c-1.4-0.8-2.9-1.4-4.6-1.8c-1.6-0.4-3.1-0.7-4.6-1c-1.4-0.3-2.6-0.7-3.5-1.1c-0.9-0.4-1.4-1.1-1.4-2c0-1.1,0.5-1.9,1.3-2.3
	c0.9-0.5,1.8-0.7,2.8-0.7c2.7,0,4.9,1,6.5,3.1L215.7,261.2z M180.2,257.4H169v18.1c0,1.2-0.1,2.3-0.2,3.4c-0.1,1.1-0.5,2.1-0.9,3
	c-0.5,0.9-1.2,1.6-2.1,2.1c-0.9,0.5-2.1,0.8-3.5,0.8c-1.4,0-2.6-0.3-3.3-0.9c-0.8-0.6-1.3-1.4-1.7-2.3c-0.4-0.9-0.6-2-0.7-3.1
	c-0.1-1.1-0.1-2.2-0.1-3.3v-17.8h-11.2v20.1c0,2.5,0.2,4.7,0.5,6.8c0.3,2.1,1,3.9,1.9,5.5c1,1.5,2.3,2.8,4.1,3.6
	c1.8,0.9,4.1,1.3,6.9,1.3c1.3,0,2.6-0.2,3.7-0.5c1.1-0.4,2.2-0.8,3.1-1.4c0.9-0.5,1.7-1.2,2.3-1.9c0.6-0.7,1.1-1.4,1.5-2.1h0.1v4.9
	h10.8V257.4z M114.7,293.8h11.2v-15.2c0-1.8,0.1-3.4,0.3-4.9c0.2-1.5,0.6-2.8,1.3-3.9c0.7-1.1,1.6-1.9,2.9-2.5
	c1.2-0.6,2.9-0.9,5.1-0.9c0.8,0,1.7,0.1,2.4,0.2c0.8,0.1,1.6,0.3,2.4,0.6v-10.3c-0.6-0.1-1.2-0.2-1.8-0.3c-0.6,0-1.3-0.1-1.9-0.1
	c-2.5,0-4.6,0.6-6.2,1.7c-1.6,1.1-3.1,2.8-4.3,5.1h-0.2v-5.8h-11.2V293.8z M90.3,293.8H102v-42.7h15.1v-10.3h-42v10.3h15.1V293.8z"
	/>
<path class="st1" d="M290.6,187.2c-1.7-1.8-3.8-3-6.2-3.7c-2.4-0.7-4.9-1-7.3-1c-1.9,0-3.8,0.2-5.6,0.7c-1.8,0.5-3.5,1.2-4.9,2.2
	c-1.4,1-2.6,2.3-3.4,3.8c-0.9,1.5-1.3,3.4-1.3,5.5c0,2.3,0.5,4.1,1.4,5.5c0.9,1.4,2.1,2.4,3.5,3.2c1.4,0.7,2.9,1.3,4.6,1.7
	c1.6,0.4,3.1,0.7,4.6,1c1.4,0.3,2.6,0.7,3.5,1.2c0.9,0.5,1.4,1.2,1.4,2.1c0,1-0.5,1.7-1.6,2.1c-1,0.4-2.2,0.6-3.5,0.6
	c-1.7,0-3.2-0.3-4.5-1c-1.3-0.7-2.4-1.7-3.5-3l-6.8,7.6c1.8,1.8,4,3.1,6.6,3.9c2.6,0.7,5.2,1.1,7.7,1.1c1.9,0,3.9-0.2,5.9-0.6
	c2-0.4,3.8-1,5.4-1.9c1.6-0.9,2.9-2.1,3.9-3.7c1-1.5,1.5-3.5,1.5-5.8c0-2.3-0.5-4.1-1.4-5.5c-0.9-1.4-2.1-2.5-3.5-3.3
	c-1.4-0.8-2.9-1.4-4.6-1.8c-1.6-0.4-3.1-0.7-4.6-1c-1.4-0.3-2.6-0.7-3.5-1.1c-0.9-0.4-1.4-1.1-1.4-2c0-1.1,0.4-1.9,1.3-2.3
	c0.9-0.5,1.8-0.7,2.8-0.7c2.7,0,4.9,1,6.5,3.1L290.6,187.2z M255.1,183.3h-11.2v18.1c0,1.2-0.1,2.3-0.2,3.4c-0.1,1.1-0.5,2.1-0.9,3
	c-0.5,0.9-1.2,1.6-2.1,2.1c-0.9,0.5-2.1,0.8-3.5,0.8c-1.4,0-2.6-0.3-3.3-0.9c-0.8-0.6-1.3-1.4-1.7-2.3c-0.4-0.9-0.6-2-0.7-3.1
	c-0.1-1.1-0.1-2.2-0.1-3.3v-17.8h-11.2v20.1c0,2.4,0.2,4.7,0.5,6.8c0.3,2.1,1,3.9,1.9,5.5c1,1.5,2.3,2.8,4.1,3.6
	c1.8,0.9,4.1,1.3,6.9,1.3c1.3,0,2.6-0.2,3.7-0.5c1.1-0.3,2.2-0.8,3.1-1.3c0.9-0.5,1.7-1.2,2.3-1.9c0.6-0.7,1.1-1.4,1.5-2.1h0.2v4.9
	h10.8V183.3z M189.6,219.7h11.2v-15.2c0-1.8,0.1-3.4,0.3-4.9c0.2-1.5,0.6-2.8,1.3-3.9c0.7-1.1,1.6-1.9,2.9-2.5
	c1.2-0.6,2.9-0.9,5.1-0.9c0.8,0,1.7,0.1,2.4,0.2c0.8,0.1,1.6,0.3,2.4,0.6v-10.3c-0.5-0.1-1.1-0.2-1.8-0.3c-0.6,0-1.3-0.1-1.9-0.1
	c-2.5,0-4.6,0.6-6.2,1.7c-1.6,1.1-3.1,2.8-4.3,5.1h-0.2v-5.8h-11.2V219.7z M156.1,194.8c1.6-1.7,3.8-2.5,6.6-2.5
	c2.8,0,5.1,0.9,6.6,2.5c1.6,1.7,2.4,3.9,2.4,6.7c0,2.7-0.8,5-2.4,6.7c-1.6,1.7-3.8,2.5-6.6,2.5c-2.8,0-5.1-0.8-6.6-2.5
	c-1.6-1.7-2.4-3.9-2.4-6.7C153.8,198.7,154.5,196.5,156.1,194.8 M144.1,209.3c1,2.3,2.5,4.4,4.3,6c1.8,1.7,4,3,6.4,3.9
	c2.5,0.9,5.1,1.3,7.9,1.3c2.8,0,5.4-0.5,7.9-1.3c2.5-0.9,4.6-2.2,6.4-3.9c1.8-1.7,3.3-3.7,4.3-6c1-2.3,1.6-5,1.6-7.9
	c0-2.9-0.5-5.5-1.6-7.9c-1-2.3-2.5-4.4-4.3-6c-1.8-1.7-4-3-6.4-3.9c-2.5-0.9-5.1-1.4-7.9-1.4c-2.8,0-5.4,0.5-7.9,1.4
	c-2.5,0.9-4.6,2.2-6.4,3.9c-1.8,1.7-3.3,3.7-4.3,6c-1,2.3-1.6,5-1.6,7.9C142.5,204.4,143,207,144.1,209.3 M124.5,219.7h11.2V163
	h-11.2V219.7z M91.5,197.4c0.1-0.9,0.3-1.8,0.6-2.6c0.4-0.8,0.9-1.5,1.6-2.2c0.7-0.6,1.5-1.1,2.4-1.5c0.9-0.4,2-0.6,3.3-0.6
	c2,0,3.7,0.7,5,2c1.3,1.3,1.9,3,1.9,4.9H91.5z M108,207.6c-1,1.3-2.1,2.4-3.3,3.2c-1.3,0.8-2.8,1.2-4.7,1.2c-2.2,0-4-0.6-5.5-1.9
	c-1.5-1.3-2.5-3-2.9-5.1h26.1v-3.5c0-2.9-0.4-5.5-1.2-7.9c-0.8-2.3-1.9-4.4-3.4-6c-1.5-1.7-3.3-3-5.4-3.9c-2.1-0.9-4.5-1.4-7.1-1.4
	c-2.8,0-5.4,0.5-7.9,1.4c-2.5,0.9-4.6,2.2-6.4,3.9c-1.8,1.7-3.3,3.7-4.3,6c-1,2.3-1.6,5-1.6,7.9c0,2.9,0.5,5.5,1.6,7.9
	c1,2.3,2.5,4.4,4.3,6c1.8,1.7,4,3,6.4,3.9c2.5,0.9,5.1,1.3,7.9,1.3c2.9,0,5.8-0.6,8.5-1.9c2.7-1.2,5-3,6.8-5.3L108,207.6z
	 M47.3,176.5h6c1.1,0,2.2,0.1,3.4,0.2c1.2,0.1,2.3,0.4,3.3,0.9c1,0.5,1.8,1.1,2.4,1.9c0.6,0.8,0.9,1.9,0.9,3.3
	c0,1.2-0.2,2.3-0.7,3.1c-0.5,0.8-1.1,1.5-1.9,1.9c-0.8,0.5-1.6,0.8-2.6,1c-1,0.2-2,0.3-3,0.3h-7.8V176.5z M35.6,219.7h11.7V199h8.5
	c2.8,0,5.4-0.3,7.8-0.8c2.4-0.5,4.5-1.4,6.2-2.7c1.7-1.2,3.1-2.9,4.1-5c1-2.1,1.5-4.7,1.5-7.8c0-3.1-0.5-5.8-1.6-7.8
	c-1.1-2.1-2.5-3.7-4.3-4.9c-1.8-1.2-4-2.1-6.4-2.6c-2.4-0.5-5-0.7-7.8-0.7H35.6V219.7z"/>
</svg>
