<?xml version="1.0" encoding="UTF-8"?>
<svg xmlns="http://www.w3.org/2000/svg" width="300" height="200" viewBox="0 0 708.66 438.73">
    <defs>
        <style>
            .cls-1 {
                fill: #fff;
            }
            .cls-2 {
                fill: #010101;
            }
        </style>
    </defs>
    <title>logo</title>
    <g id="layer1">
        <g id="g3835">
            <path
                id="path3425"
                class="cls-1"
                d="M591.94,404.11l-1.75,1.14-472.42,0L116,404C64,369.6,33.52,321.1,33.52,262.83c0-110.67,140.21-230.28,321.33-230.28S676.15,152.31,676.15,262.83C676.15,321.67,645.07,369.58,591.94,404.11Z"
            />
            <path
                id="path3427"
                class="cls-2"
                d="M668.53,263.28c0-104.91-135.08-223.18-314.2-223.18S40.12,158.22,40.12,263.28c0,55.45,28.89,101.9,79.3,135.3l468.14,0C639.15,365.09,668.53,319.21,668.53,263.28Zm40.13,0c0,79.64-45.23,135.6-109.59,175.46l-491.36,0C44.09,398.64,0,342,0,263.28,0,126.33,164.23,0,354.34,0S708.66,126.49,708.66,263.28Z"
            />
            <path
                id="path3429"
                class="cls-2"
                d="M503.42,371.12H437.17V75.33s40,8,72.56,24.45v38.77s-21.18-9.43-36.06-12.14v74.67s42.82,9.92,66.25,20.73v33.8s-42.36-15.77-66.25-18.93v103.2h29.75Z"
            />
            <path
                id="path3431"
                class="cls-2"
                d="M603.24,354.17,584.82,300l-31.25,71.07H515.65l53.1-123.27L526,106.71a301.78,301.78,0,0,1,47,29.69l17.1,58.79,13.21-30.43S619.9,183,627.19,197l-21.44,52.65,24.56,70.94A137.84,137.84,0,0,1,603.24,354.17Z"
            />
            <path
                id="path3433"
                class="cls-2"
                d="M64.19,249.15c-7.7,68.12,46.46,109.31,46.46,109.31l16.91-31.19C113.29,310.76,103,285.78,103,285.78l34.8-17.84V371.41h35.25V112.33C120.77,142.41,70.94,189.37,64.19,249.15Zm74.08-20.93L100.8,248.3c2.68-38.37,37.48-66,37.48-66Z"
            />
            <path
                id="path3435"
                class="cls-2"
                d="M294.63,187.12V92s1.55-7.85-3.15-12.62c-5-5.1-14-4.51-14-4.51-41.55,8-79.77,27.42-79.77,27.42v268.8h37V236.69a53.85,53.85,0,0,1,12.62-3.6c8.8-1.58,11.27,6.76,11.27,6.76V371.12h36.05V221.82c0-10.82-13.07-16.23-13.07-16.23C295.08,202,294.63,187.12,294.63,187.12ZM253.17,193c-5.86,2.25-18.48,6.31-18.48,6.31V127.63l15.77-7.21s7.66-3.61,7.66,3.6v61.74S259,190.72,253.17,193Z"
            />
            <path
                id="path3437"
                class="cls-2"
                d="M391.59,69.49c-32-4.6-73.46,0-73.46,0V371.12h81.12c14.42,0,14.42-20.86,14.42-20.86V97C413.67,73.1,391.59,69.49,391.59,69.49ZM377.16,328.18s-.85,9.91-6.3,9.91H354.18V102.84h16.68s6.3.45,6.3,9Z"
            />
        </g>
    </g>
</svg>
